<svg viewBox="0 0 400 400" xmlns="http://www.w3.org/2000/svg">
<defs>
<radialGradient id="haze5" cx="50%" cy="50%" r="50%">
      <stop offset="0%" stop-color="#fff" stop-opacity="0"/>
      <stop offset="40%" stop-color="#fff" stop-opacity="0"/>
      <stop offset="54%" stop-color="#cfcfcf" stop-opacity="0.08"/>
      <stop offset="78%" stop-color="#777" stop-opacity="0.04"/>
      <stop offset="100%" stop-color="#000" stop-opacity="0"/>
    </radialGradient>
</defs>
<circle cx="200" cy="200" r="150" fill="url(#haze5)"/>
<line x1="248.02" y1="200.00" x2="338.69" y2="200.00" stroke="#ffffff" stroke-width="2.55" stroke-opacity="0.96" stroke-linecap="round"/>
<line x1="243.41" y1="201.14" x2="347.62" y2="203.87" stroke="#ffffff" stroke-width="1.82" stroke-opacity="0.95" stroke-linecap="round"/>
<line x1="243.91" y1="202.30" x2="346.83" y2="207.69" stroke="#454545" stroke-width="1.83" stroke-opacity="0.50" stroke-linecap="round"/>
<line x1="243.19" y1="203.40" x2="336.80" y2="210.77" stroke="#454545" stroke-width="1.28" stroke-opacity="0.58" stroke-linecap="round"/>
<line x1="244.03" y1="204.63" x2="342.19" y2="214.94" stroke="#454545" stroke-width="2.55" stroke-opacity="0.52" stroke-linecap="round"/>
<line x1="242.88" y1="205.65" x2="322.74" y2="216.16" stroke="#454545" stroke-width="2.72" stroke-opacity="0.43" stroke-linecap="round"/>
<line x1="248.26" y1="207.64" x2="347.63" y2="223.38" stroke="#ffffff" stroke-width="1.44" stroke-opacity="0.93" stroke-linecap="round"/>
<line x1="243.81" y1="208.12" x2="337.98" y2="225.57" stroke="#bcbcbc" stroke-width="2.87" stroke-opacity="0.71" stroke-linecap="round"/>
<line x1="244.18" y1="209.39" x2="343.60" y2="230.52" stroke="#454545" stroke-width="1.59" stroke-opacity="0.41" stroke-linecap="round"/>
<line x1="243.93" y1="210.55" x2="318.58" y2="228.47" stroke="#454545" stroke-width="2.13" stroke-opacity="0.53" stroke-linecap="round"/>
<line x1="243.69" y1="211.71" x2="325.70" y2="233.68" stroke="#454545" stroke-width="2.60" stroke-opacity="0.45" stroke-linecap="round"/>
<line x1="245.81" y1="213.57" x2="328.90" y2="238.18" stroke="#ffffff" stroke-width="0.93" stroke-opacity="0.85" stroke-linecap="round"/>
<line x1="246.30" y1="215.04" x2="335.52" y2="244.03" stroke="#bcbcbc" stroke-width="0.84" stroke-opacity="0.58" stroke-linecap="round"/>
<line x1="240.81" y1="214.45" x2="329.48" y2="245.85" stroke="#454545" stroke-width="0.90" stroke-opacity="0.59" stroke-linecap="round"/>
<line x1="244.91" y1="217.24" x2="317.53" y2="245.12" stroke="#ffffff" stroke-width="2.85" stroke-opacity="0.90" stroke-linecap="round"/>
<line x1="243.07" y1="217.84" x2="320.70" y2="250.00" stroke="#454545" stroke-width="2.51" stroke-opacity="0.54" stroke-linecap="round"/>
<line x1="244.56" y1="219.84" x2="331.47" y2="258.54" stroke="#ffffff" stroke-width="0.88" stroke-opacity="0.86" stroke-linecap="round"/>
<line x1="242.58" y1="220.31" x2="317.54" y2="256.06" stroke="#454545" stroke-width="2.82" stroke-opacity="0.58" stroke-linecap="round"/>
<line x1="240.32" y1="220.54" x2="321.49" y2="261.90" stroke="#454545" stroke-width="1.50" stroke-opacity="0.40" stroke-linecap="round"/>
<line x1="241.90" y1="222.75" x2="309.38" y2="259.39" stroke="#454545" stroke-width="2.99" stroke-opacity="0.39" stroke-linecap="round"/>
<line x1="240.42" y1="223.34" x2="329.56" y2="274.80" stroke="#454545" stroke-width="1.69" stroke-opacity="0.51" stroke-linecap="round"/>
<line x1="239.37" y1="224.13" x2="323.45" y2="275.65" stroke="#454545" stroke-width="1.73" stroke-opacity="0.58" stroke-linecap="round"/>
<line x1="238.93" y1="225.28" x2="301.46" y2="265.89" stroke="#454545" stroke-width="2.64" stroke-opacity="0.54" stroke-linecap="round"/>
<line x1="238.98" y1="226.79" x2="322.38" y2="284.11" stroke="#454545" stroke-width="2.53" stroke-opacity="0.48" stroke-linecap="round"/>
<line x1="239.38" y1="228.61" x2="300.70" y2="273.17" stroke="#454545" stroke-width="1.45" stroke-opacity="0.60" stroke-linecap="round"/>
<line x1="239.29" y1="230.15" x2="315.49" y2="288.62" stroke="#454545" stroke-width="1.80" stroke-opacity="0.54" stroke-linecap="round"/>
<line x1="235.06" y1="228.39" x2="304.43" y2="284.56" stroke="#454545" stroke-width="1.69" stroke-opacity="0.46" stroke-linecap="round"/>
<line x1="237.58" y1="232.10" x2="313.80" y2="297.19" stroke="#454545" stroke-width="2.18" stroke-opacity="0.45" stroke-linecap="round"/>
<line x1="233.44" y1="230.11" x2="291.16" y2="282.09" stroke="#ffffff" stroke-width="2.52" stroke-opacity="0.90" stroke-linecap="round"/>
<line x1="234.99" y1="233.20" x2="304.15" y2="298.83" stroke="#bcbcbc" stroke-width="2.33" stroke-opacity="0.67" stroke-linecap="round"/>
<line x1="233.78" y1="233.78" x2="292.56" y2="292.56" stroke="#454545" stroke-width="1.42" stroke-opacity="0.55" stroke-linecap="round"/>
<line x1="231.07" y1="232.74" x2="296.87" y2="302.08" stroke="#bcbcbc" stroke-width="2.88" stroke-opacity="0.63" stroke-linecap="round"/>
<line x1="231.29" y1="234.75" x2="280.53" y2="289.44" stroke="#bcbcbc" stroke-width="1.35" stroke-opacity="0.60" stroke-linecap="round"/>
<line x1="230.79" y1="236.05" x2="293.85" y2="309.88" stroke="#454545" stroke-width="2.55" stroke-opacity="0.52" stroke-linecap="round"/>
<line x1="230.57" y1="237.75" x2="289.45" y2="310.46" stroke="#ffffff" stroke-width="1.57" stroke-opacity="0.98" stroke-linecap="round"/>
<line x1="230.15" y1="239.29" x2="285.62" y2="311.59" stroke="#454545" stroke-width="2.90" stroke-opacity="0.50" stroke-linecap="round"/>
<line x1="228.58" y1="239.34" x2="273.46" y2="301.12" stroke="#454545" stroke-width="2.86" stroke-opacity="0.53" stroke-linecap="round"/>
<line x1="227.16" y1="239.51" x2="280.20" y2="316.69" stroke="#bcbcbc" stroke-width="1.18" stroke-opacity="0.63" stroke-linecap="round"/>
<line x1="225.03" y1="238.54" x2="276.23" y2="317.39" stroke="#bcbcbc" stroke-width="2.17" stroke-opacity="0.64" stroke-linecap="round"/>
<line x1="222.69" y1="237.02" x2="273.99" y2="320.74" stroke="#454545" stroke-width="1.15" stroke-opacity="0.52" stroke-linecap="round"/>
<line x1="223.83" y1="241.27" x2="263.29" y2="309.61" stroke="#454545" stroke-width="2.19" stroke-opacity="0.48" stroke-linecap="round"/>
<line x1="220.80" y1="238.31" x2="260.50" y2="311.42" stroke="#454545" stroke-width="1.09" stroke-opacity="0.42" stroke-linecap="round"/>
<line x1="219.73" y1="238.73" x2="257.11" y2="312.09" stroke="#454545" stroke-width="1.82" stroke-opacity="0.51" stroke-linecap="round"/>
<line x1="219.27" y1="240.41" x2="259.28" y2="324.29" stroke="#454545" stroke-width="2.79" stroke-opacity="0.47" stroke-linecap="round"/>
<line x1="218.66" y1="241.91" x2="252.21" y2="317.26" stroke="#bcbcbc" stroke-width="1.05" stroke-opacity="0.58" stroke-linecap="round"/>
<line x1="218.06" y1="243.60" x2="246.34" y2="311.87" stroke="#bcbcbc" stroke-width="1.01" stroke-opacity="0.57" stroke-linecap="round"/>
<line x1="217.71" y1="246.13" x2="249.25" y2="328.30" stroke="#454545" stroke-width="2.60" stroke-opacity="0.56" stroke-linecap="round"/>
<line x1="215.23" y1="243.00" x2="246.49" y2="331.28" stroke="#bcbcbc" stroke-width="1.11" stroke-opacity="0.62" stroke-linecap="round"/>
<line x1="215.29" y1="247.05" x2="245.96" y2="341.44" stroke="#454545" stroke-width="2.14" stroke-opacity="0.58" stroke-linecap="round"/>
<line x1="212.48" y1="242.13" x2="234.09" y2="315.09" stroke="#bcbcbc" stroke-width="2.04" stroke-opacity="0.53" stroke-linecap="round"/>
<line x1="212.68" y1="247.31" x2="235.95" y2="334.15" stroke="#454545" stroke-width="1.63" stroke-opacity="0.43" stroke-linecap="round"/>
<line x1="211.56" y1="248.13" x2="230.05" y2="325.19" stroke="#ffffff" stroke-width="1.64" stroke-opacity="0.99" stroke-linecap="round"/>
<line x1="209.34" y1="243.93" x2="228.67" y2="334.86" stroke="#454545" stroke-width="2.96" stroke-opacity="0.47" stroke-linecap="round"/>
<line x1="209.04" y1="248.75" x2="223.61" y2="327.40" stroke="#454545" stroke-width="1.88" stroke-opacity="0.48" stroke-linecap="round"/>
<line x1="207.39" y1="246.66" x2="219.34" y2="322.13" stroke="#454545" stroke-width="1.78" stroke-opacity="0.55" stroke-linecap="round"/>
<line x1="205.66" y1="242.95" x2="218.90" y2="343.57" stroke="#454545" stroke-width="1.97" stroke-opacity="0.59" stroke-linecap="round"/>
<line x1="204.69" y1="244.58" x2="215.00" y2="342.67" stroke="#454545" stroke-width="1.39" stroke-opacity="0.60" stroke-linecap="round"/>
<line x1="203.70" y1="247.01" x2="210.11" y2="328.40" stroke="#bcbcbc" stroke-width="1.84" stroke-opacity="0.63" stroke-linecap="round"/>
<line x1="202.30" y1="243.94" x2="207.45" y2="342.11" stroke="#454545" stroke-width="2.47" stroke-opacity="0.50" stroke-linecap="round"/>
<line x1="201.18" y1="245.14" x2="203.41" y2="330.04" stroke="#454545" stroke-width="1.97" stroke-opacity="0.46" stroke-linecap="round"/>
<line x1="200.00" y1="247.04" x2="200.00" y2="342.35" stroke="#454545" stroke-width="0.88" stroke-opacity="0.48" stroke-linecap="round"/>
<line x1="198.72" y1="248.94" x2="196.14" y2="347.45" stroke="#454545" stroke-width="2.00" stroke-opacity="0.55" stroke-linecap="round"/>
<line x1="197.54" y1="246.88" x2="193.05" y2="332.65" stroke="#bcbcbc" stroke-width="2.36" stroke-opacity="0.61" stroke-linecap="round"/>
<line x1="196.41" y1="245.58" x2="188.44" y2="346.90" stroke="#ffffff" stroke-width="1.66" stroke-opacity="0.88" stroke-linecap="round"/>
<line x1="194.92" y1="248.32" x2="186.53" y2="328.19" stroke="#bcbcbc" stroke-width="0.95" stroke-opacity="0.65" stroke-linecap="round"/>
<line x1="194.12" y1="244.70" x2="182.64" y2="331.85" stroke="#ffffff" stroke-width="2.52" stroke-opacity="0.87" stroke-linecap="round"/>
<line x1="192.68" y1="246.20" x2="178.98" y2="332.70" stroke="#454545" stroke-width="1.89" stroke-opacity="0.41" stroke-linecap="round"/>
<line x1="191.17" y1="247.66" x2="174.93" y2="335.27" stroke="#454545" stroke-width="0.95" stroke-opacity="0.56" stroke-linecap="round"/>
<line x1="190.12" y1="246.48" x2="170.11" y2="340.61" stroke="#bcbcbc" stroke-width="0.86" stroke-opacity="0.72" stroke-linecap="round"/>
<line x1="188.85" y1="246.44" x2="164.99" y2="345.81" stroke="#ffffff" stroke-width="0.91" stroke-opacity="0.88" stroke-linecap="round"/>
<line x1="187.22" y1="247.69" x2="163.93" y2="334.62" stroke="#454545" stroke-width="2.37" stroke-opacity="0.44" stroke-linecap="round"/>
<line x1="187.45" y1="242.38" x2="158.10" y2="341.46" stroke="#454545" stroke-width="2.14" stroke-opacity="0.42" stroke-linecap="round"/>
<line x1="186.55" y1="241.39" x2="157.15" y2="331.89" stroke="#454545" stroke-width="1.04" stroke-opacity="0.40" stroke-linecap="round"/>
<line x1="184.33" y1="244.25" x2="159.37" y2="314.74" stroke="#ffffff" stroke-width="2.43" stroke-opacity="0.87" stroke-linecap="round"/>
<line x1="183.78" y1="242.26" x2="152.35" y2="324.12" stroke="#454545" stroke-width="2.12" stroke-opacity="0.59" stroke-linecap="round"/>
<line x1="183.32" y1="240.28" x2="149.78" y2="321.24" stroke="#454545" stroke-width="2.33" stroke-opacity="0.52" stroke-linecap="round"/>
<line x1="180.03" y1="244.86" x2="145.02" y2="323.49" stroke="#bcbcbc" stroke-width="2.02" stroke-opacity="0.56" stroke-linecap="round"/>
<line x1="180.68" y1="240.51" x2="141.21" y2="323.25" stroke="#454545" stroke-width="2.45" stroke-opacity="0.41" stroke-linecap="round"/>
<line x1="179.28" y1="240.66" x2="142.33" y2="313.19" stroke="#454545" stroke-width="2.42" stroke-opacity="0.54" stroke-linecap="round"/>
<line x1="179.11" y1="238.48" x2="133.36" y2="322.73" stroke="#454545" stroke-width="2.27" stroke-opacity="0.41" stroke-linecap="round"/>
<line x1="177.61" y1="238.78" x2="131.09" y2="319.35" stroke="#454545" stroke-width="2.73" stroke-opacity="0.45" stroke-linecap="round"/>
<line x1="177.31" y1="237.03" x2="124.82" y2="322.69" stroke="#454545" stroke-width="2.40" stroke-opacity="0.41" stroke-linecap="round"/>
<line x1="174.06" y1="239.94" x2="119.09" y2="324.59" stroke="#454545" stroke-width="1.29" stroke-opacity="0.59" stroke-linecap="round"/>
<line x1="172.52" y1="239.99" x2="120.73" y2="315.34" stroke="#bcbcbc" stroke-width="1.11" stroke-opacity="0.58" stroke-linecap="round"/>
<line x1="173.32" y1="236.72" x2="125.32" y2="302.79" stroke="#454545" stroke-width="2.15" stroke-opacity="0.46" stroke-linecap="round"/>
<line x1="170.42" y1="238.55" x2="124.46" y2="298.45" stroke="#bcbcbc" stroke-width="2.23" stroke-opacity="0.60" stroke-linecap="round"/>
<line x1="170.69" y1="236.19" x2="108.40" y2="313.11" stroke="#bcbcbc" stroke-width="2.10" stroke-opacity="0.66" stroke-linecap="round"/>
<line x1="171.51" y1="233.35" x2="114.36" y2="300.27" stroke="#454545" stroke-width="0.87" stroke-opacity="0.39" stroke-linecap="round"/>
<line x1="168.99" y1="234.44" x2="101.85" y2="309.00" stroke="#454545" stroke-width="2.47" stroke-opacity="0.48" stroke-linecap="round"/>
<line x1="167.49" y1="234.26" x2="99.02" y2="306.41" stroke="#454545" stroke-width="1.74" stroke-opacity="0.40" stroke-linecap="round"/>
<line x1="168.70" y1="231.30" x2="111.87" y2="288.13" stroke="#454545" stroke-width="1.62" stroke-opacity="0.57" stroke-linecap="round"/>
<line x1="167.45" y1="230.89" x2="109.64" y2="285.74" stroke="#454545" stroke-width="1.41" stroke-opacity="0.44" stroke-linecap="round"/>
<line x1="165.56" y1="231.01" x2="105.58" y2="285.02" stroke="#ffffff" stroke-width="0.87" stroke-opacity="0.91" stroke-linecap="round"/>
<line x1="163.75" y1="230.96" x2="87.35" y2="296.21" stroke="#454545" stroke-width="2.28" stroke-opacity="0.59" stroke-linecap="round"/>
<line x1="163.05" y1="229.92" x2="103.99" y2="277.74" stroke="#bcbcbc" stroke-width="1.44" stroke-opacity="0.66" stroke-linecap="round"/>
<line x1="164.67" y1="227.11" x2="100.91" y2="276.03" stroke="#454545" stroke-width="0.85" stroke-opacity="0.40" stroke-linecap="round"/>
<line x1="159.95" y1="229.10" x2="93.18" y2="277.61" stroke="#454545" stroke-width="1.60" stroke-opacity="0.48" stroke-linecap="round"/>
<line x1="160.48" y1="227.16" x2="94.10" y2="272.78" stroke="#454545" stroke-width="2.38" stroke-opacity="0.43" stroke-linecap="round"/>
<line x1="158.66" y1="226.85" x2="82.45" y2="276.34" stroke="#454545" stroke-width="2.22" stroke-opacity="0.59" stroke-linecap="round"/>
<line x1="162.80" y1="222.80" x2="97.52" y2="262.80" stroke="#454545" stroke-width="2.51" stroke-opacity="0.39" stroke-linecap="round"/>
<line x1="157.03" y1="224.81" x2="81.83" y2="268.23" stroke="#454545" stroke-width="1.94" stroke-opacity="0.40" stroke-linecap="round"/>
<line x1="156.91" y1="223.39" x2="92.66" y2="258.28" stroke="#ffffff" stroke-width="1.88" stroke-opacity="0.86" stroke-linecap="round"/>
<line x1="161.18" y1="219.78" x2="86.57" y2="257.79" stroke="#454545" stroke-width="1.67" stroke-opacity="0.44" stroke-linecap="round"/>
<line x1="159.19" y1="219.46" x2="80.66" y2="256.92" stroke="#454545" stroke-width="0.91" stroke-opacity="0.59" stroke-linecap="round"/>
<line x1="157.51" y1="218.92" x2="85.46" y2="251.00" stroke="#bcbcbc" stroke-width="1.69" stroke-opacity="0.52" stroke-linecap="round"/>
<line x1="159.41" y1="216.81" x2="80.43" y2="249.53" stroke="#ffffff" stroke-width="1.99" stroke-opacity="0.94" stroke-linecap="round"/>
<line x1="158.34" y1="215.99" x2="63.97" y2="252.22" stroke="#bcbcbc" stroke-width="0.84" stroke-opacity="0.61" stroke-linecap="round"/>
<line x1="156.95" y1="215.24" x2="70.72" y2="245.78" stroke="#bcbcbc" stroke-width="2.18" stroke-opacity="0.70" stroke-linecap="round"/>
<line x1="156.13" y1="214.26" x2="77.10" y2="239.93" stroke="#454545" stroke-width="2.62" stroke-opacity="0.41" stroke-linecap="round"/>
<line x1="158.00" y1="212.44" x2="75.98" y2="236.74" stroke="#bcbcbc" stroke-width="2.50" stroke-opacity="0.57" stroke-linecap="round"/>
<line x1="157.72" y1="211.33" x2="80.33" y2="232.07" stroke="#454545" stroke-width="1.34" stroke-opacity="0.47" stroke-linecap="round"/>
<line x1="156.42" y1="210.46" x2="66.48" y2="232.05" stroke="#bcbcbc" stroke-width="0.94" stroke-opacity="0.51" stroke-linecap="round"/>
<line x1="155.90" y1="209.37" x2="76.76" y2="226.20" stroke="#454545" stroke-width="1.62" stroke-opacity="0.47" stroke-linecap="round"/>
<line x1="152.72" y1="208.76" x2="72.75" y2="223.58" stroke="#ffffff" stroke-width="2.02" stroke-opacity="0.95" stroke-linecap="round"/>
<line x1="153.64" y1="207.34" x2="58.97" y2="222.34" stroke="#bcbcbc" stroke-width="1.77" stroke-opacity="0.64" stroke-linecap="round"/>
<line x1="152.48" y1="206.26" x2="52.63" y2="219.40" stroke="#454545" stroke-width="2.34" stroke-opacity="0.56" stroke-linecap="round"/>
<line x1="156.16" y1="204.61" x2="69.25" y2="213.74" stroke="#454545" stroke-width="0.95" stroke-opacity="0.44" stroke-linecap="round"/>
<line x1="155.06" y1="203.54" x2="60.16" y2="211.01" stroke="#bcbcbc" stroke-width="0.94" stroke-opacity="0.62" stroke-linecap="round"/>
<line x1="156.49" y1="202.28" x2="79.34" y2="206.32" stroke="#454545" stroke-width="1.09" stroke-opacity="0.57" stroke-linecap="round"/>
<line x1="152.83" y1="201.24" x2="51.57" y2="203.89" stroke="#454545" stroke-width="1.31" stroke-opacity="0.46" stroke-linecap="round"/>
<line x1="156.68" y1="200.00" x2="70.09" y2="200.00" stroke="#bcbcbc" stroke-width="2.09" stroke-opacity="0.66" stroke-linecap="round"/>
<line x1="153.36" y1="198.78" x2="77.18" y2="196.78" stroke="#bcbcbc" stroke-width="1.18" stroke-opacity="0.60" stroke-linecap="round"/>
<line x1="151.71" y1="197.47" x2="52.05" y2="192.25" stroke="#454545" stroke-width="1.06" stroke-opacity="0.58" stroke-linecap="round"/>
<line x1="154.11" y1="196.39" x2="66.58" y2="189.50" stroke="#bcbcbc" stroke-width="1.77" stroke-opacity="0.71" stroke-linecap="round"/>
<line x1="150.79" y1="194.83" x2="64.77" y2="185.79" stroke="#454545" stroke-width="2.11" stroke-opacity="0.56" stroke-linecap="round"/>
<line x1="156.80" y1="194.31" x2="68.55" y2="182.69" stroke="#454545" stroke-width="2.95" stroke-opacity="0.51" stroke-linecap="round"/>
<line x1="151.68" y1="192.35" x2="67.20" y2="178.97" stroke="#454545" stroke-width="1.66" stroke-opacity="0.44" stroke-linecap="round"/>
<line x1="153.92" y1="191.46" x2="76.08" y2="177.03" stroke="#bcbcbc" stroke-width="1.59" stroke-opacity="0.55" stroke-linecap="round"/>
<line x1="156.14" y1="190.68" x2="72.30" y2="172.86" stroke="#ffffff" stroke-width="2.96" stroke-opacity="0.98" stroke-linecap="round"/>
<line x1="155.44" y1="189.30" x2="65.28" y2="167.66" stroke="#bcbcbc" stroke-width="1.11" stroke-opacity="0.61" stroke-linecap="round"/>
<line x1="157.18" y1="188.53" x2="83.00" y2="168.65" stroke="#bcbcbc" stroke-width="1.02" stroke-opacity="0.70" stroke-linecap="round"/>
<line x1="153.62" y1="186.26" x2="79.21" y2="164.22" stroke="#bcbcbc" stroke-width="1.51" stroke-opacity="0.69" stroke-linecap="round"/>
<line x1="153.97" y1="185.05" x2="68.10" y2="157.14" stroke="#454545" stroke-width="1.63" stroke-opacity="0.49" stroke-linecap="round"/>
<line x1="158.12" y1="185.17" x2="70.29" y2="154.07" stroke="#454545" stroke-width="1.66" stroke-opacity="0.39" stroke-linecap="round"/>
<line x1="157.33" y1="183.62" x2="79.23" y2="153.64" stroke="#bcbcbc" stroke-width="1.85" stroke-opacity="0.59" stroke-linecap="round"/>
<line x1="155.20" y1="181.44" x2="61.91" y2="142.80" stroke="#bcbcbc" stroke-width="2.83" stroke-opacity="0.65" stroke-linecap="round"/>
<line x1="155.80" y1="180.32" x2="75.67" y2="144.64" stroke="#bcbcbc" stroke-width="1.60" stroke-opacity="0.65" stroke-linecap="round"/>
<line x1="159.32" y1="180.60" x2="77.55" y2="141.59" stroke="#454545" stroke-width="0.97" stroke-opacity="0.46" stroke-linecap="round"/>
<line x1="157.11" y1="178.15" x2="77.57" y2="137.62" stroke="#454545" stroke-width="2.37" stroke-opacity="0.58" stroke-linecap="round"/>
<line x1="157.95" y1="177.17" x2="87.30" y2="138.81" stroke="#bcbcbc" stroke-width="0.96" stroke-opacity="0.65" stroke-linecap="round"/>
<line x1="157.55" y1="175.49" x2="71.22" y2="125.65" stroke="#bcbcbc" stroke-width="2.31" stroke-opacity="0.66" stroke-linecap="round"/>
<line x1="161.99" y1="176.70" x2="82.05" y2="127.72" stroke="#ffffff" stroke-width="1.94" stroke-opacity="0.89" stroke-linecap="round"/>
<line x1="160.80" y1="174.54" x2="74.84" y2="118.72" stroke="#454545" stroke-width="1.67" stroke-opacity="0.47" stroke-linecap="round"/>
<line x1="160.90" y1="173.13" x2="96.70" y2="129.00" stroke="#ffffff" stroke-width="2.78" stroke-opacity="0.94" stroke-linecap="round"/>
<line x1="164.45" y1="174.17" x2="93.53" y2="122.65" stroke="#bcbcbc" stroke-width="2.32" stroke-opacity="0.66" stroke-linecap="round"/>
<line x1="161.16" y1="170.20" x2="95.90" y2="120.12" stroke="#454545" stroke-width="1.27" stroke-opacity="0.44" stroke-linecap="round"/>
<line x1="161.91" y1="169.15" x2="92.24" y2="112.74" stroke="#bcbcbc" stroke-width="1.17" stroke-opacity="0.67" stroke-linecap="round"/>
<line x1="166.81" y1="171.66" x2="103.63" y2="117.69" stroke="#bcbcbc" stroke-width="2.04" stroke-opacity="0.69" stroke-linecap="round"/>
<line x1="165.87" y1="169.27" x2="94.59" y2="105.09" stroke="#bcbcbc" stroke-width="1.74" stroke-opacity="0.70" stroke-linecap="round"/>
<line x1="167.32" y1="168.99" x2="106.38" y2="111.15" stroke="#ffffff" stroke-width="2.13" stroke-opacity="0.88" stroke-linecap="round"/>
<line x1="168.90" y1="168.90" x2="114.50" y2="114.50" stroke="#bcbcbc" stroke-width="2.04" stroke-opacity="0.54" stroke-linecap="round"/>
<line x1="167.60" y1="165.86" x2="113.47" y2="108.81" stroke="#bcbcbc" stroke-width="2.22" stroke-opacity="0.66" stroke-linecap="round"/>
<line x1="168.98" y1="165.55" x2="118.47" y2="109.45" stroke="#ffffff" stroke-width="2.64" stroke-opacity="0.90" stroke-linecap="round"/>
<line x1="169.22" y1="163.96" x2="105.50" y2="89.35" stroke="#454545" stroke-width="2.84" stroke-opacity="0.53" stroke-linecap="round"/>
<line x1="170.86" y1="164.01" x2="108.61" y2="87.14" stroke="#454545" stroke-width="1.02" stroke-opacity="0.41" stroke-linecap="round"/>
<line x1="173.08" y1="164.92" x2="125.25" y2="102.59" stroke="#454545" stroke-width="2.15" stroke-opacity="0.55" stroke-linecap="round"/>
<line x1="171.49" y1="160.76" x2="116.48" y2="85.05" stroke="#bcbcbc" stroke-width="2.57" stroke-opacity="0.70" stroke-linecap="round"/>
<line x1="173.23" y1="161.05" x2="115.77" y2="77.45" stroke="#454545" stroke-width="2.92" stroke-opacity="0.40" stroke-linecap="round"/>
<line x1="175.73" y1="162.62" x2="133.59" y2="97.74" stroke="#454545" stroke-width="1.62" stroke-opacity="0.53" stroke-linecap="round"/>
<line x1="177.13" y1="162.67" x2="125.65" y2="78.68" stroke="#bcbcbc" stroke-width="1.69" stroke-opacity="0.58" stroke-linecap="round"/>
<line x1="176.46" y1="159.22" x2="138.24" y2="93.02" stroke="#bcbcbc" stroke-width="1.62" stroke-opacity="0.61" stroke-linecap="round"/>
<line x1="176.46" y1="156.65" x2="128.96" y2="69.16" stroke="#bcbcbc" stroke-width="0.96" stroke-opacity="0.66" stroke-linecap="round"/>
<line x1="180.03" y1="160.80" x2="141.49" y2="85.17" stroke="#454545" stroke-width="1.85" stroke-opacity="0.54" stroke-linecap="round"/>
<line x1="180.33" y1="158.75" x2="136.48" y2="66.82" stroke="#454545" stroke-width="1.44" stroke-opacity="0.53" stroke-linecap="round"/>
<line x1="180.90" y1="157.11" x2="141.56" y2="68.75" stroke="#454545" stroke-width="1.45" stroke-opacity="0.57" stroke-linecap="round"/>
<line x1="183.33" y1="159.75" x2="148.12" y2="74.74" stroke="#454545" stroke-width="1.73" stroke-opacity="0.53" stroke-linecap="round"/>
<line x1="183.88" y1="158.00" x2="156.21" y2="85.92" stroke="#454545" stroke-width="1.01" stroke-opacity="0.60" stroke-linecap="round"/>
<line x1="184.74" y1="156.90" x2="154.52" y2="71.57" stroke="#454545" stroke-width="2.85" stroke-opacity="0.46" stroke-linecap="round"/>
<line x1="186.63" y1="158.84" x2="155.40" y2="62.74" stroke="#454545" stroke-width="2.49" stroke-opacity="0.38" stroke-linecap="round"/>
<line x1="186.88" y1="155.71" x2="163.78" y2="77.73" stroke="#454545" stroke-width="1.64" stroke-opacity="0.39" stroke-linecap="round"/>
<line x1="187.18" y1="152.17" x2="167.24" y2="77.75" stroke="#454545" stroke-width="1.77" stroke-opacity="0.40" stroke-linecap="round"/>
<line x1="188.47" y1="151.98" x2="170.03" y2="75.17" stroke="#454545" stroke-width="2.31" stroke-opacity="0.39" stroke-linecap="round"/>
<line x1="189.97" y1="152.80" x2="172.60" y2="71.10" stroke="#bcbcbc" stroke-width="1.76" stroke-opacity="0.70" stroke-linecap="round"/>
<line x1="191.37" y1="153.46" x2="174.60" y2="62.98" stroke="#454545" stroke-width="0.88" stroke-opacity="0.55" stroke-linecap="round"/>
<line x1="192.36" y1="151.73" x2="179.29" y2="69.23" stroke="#ffffff" stroke-width="2.62" stroke-opacity="0.91" stroke-linecap="round"/>
<line x1="193.72" y1="152.30" x2="180.42" y2="51.31" stroke="#454545" stroke-width="2.76" stroke-opacity="0.55" stroke-linecap="round"/>
<line x1="194.83" y1="150.77" x2="186.13" y2="68.06" stroke="#454545" stroke-width="2.99" stroke-opacity="0.47" stroke-linecap="round"/>
<line x1="196.37" y1="153.88" x2="189.95" y2="72.27" stroke="#bcbcbc" stroke-width="1.43" stroke-opacity="0.53" stroke-linecap="round"/>
<line x1="197.58" y1="153.88" x2="193.45" y2="75.09" stroke="#454545" stroke-width="0.96" stroke-opacity="0.58" stroke-linecap="round"/>
<line x1="198.83" y1="155.51" x2="196.16" y2="53.49" stroke="#bcbcbc" stroke-width="0.84" stroke-opacity="0.71" stroke-linecap="round"/>
<line x1="200.00" y1="155.88" x2="200.00" y2="62.03" stroke="#ffffff" stroke-width="1.32" stroke-opacity="0.99" stroke-linecap="round"/>
<line x1="201.16" y1="155.59" x2="203.17" y2="79.11" stroke="#454545" stroke-width="1.74" stroke-opacity="0.55" stroke-linecap="round"/>
<line x1="202.52" y1="151.83" x2="206.87" y2="68.99" stroke="#454545" stroke-width="1.13" stroke-opacity="0.59" stroke-linecap="round"/>
<line x1="203.44" y1="156.32" x2="211.07" y2="59.37" stroke="#bcbcbc" stroke-width="1.04" stroke-opacity="0.58" stroke-linecap="round"/>
<line x1="204.84" y1="153.94" x2="213.70" y2="69.66" stroke="#ffffff" stroke-width="2.08" stroke-opacity="0.89" stroke-linecap="round"/>
<line x1="205.87" y1="155.45" x2="217.89" y2="64.11" stroke="#bcbcbc" stroke-width="2.00" stroke-opacity="0.53" stroke-linecap="round"/>
<line x1="207.48" y1="152.80" x2="221.03" y2="67.22" stroke="#bcbcbc" stroke-width="0.82" stroke-opacity="0.59" stroke-linecap="round"/>
<line x1="208.60" y1="153.62" x2="224.62" y2="67.14" stroke="#454545" stroke-width="2.54" stroke-opacity="0.49" stroke-linecap="round"/>
<line x1="209.51" y1="155.28" x2="225.19" y2="81.50" stroke="#454545" stroke-width="1.56" stroke-opacity="0.45" stroke-linecap="round"/>
<line x1="211.08" y1="153.85" x2="231.17" y2="70.19" stroke="#454545" stroke-width="2.83" stroke-opacity="0.50" stroke-linecap="round"/>
<line x1="212.75" y1="152.40" x2="236.60" y2="63.42" stroke="#ffffff" stroke-width="2.89" stroke-opacity="0.90" stroke-linecap="round"/>
<line x1="213.99" y1="152.79" x2="235.50" y2="80.15" stroke="#454545" stroke-width="0.97" stroke-opacity="0.54" stroke-linecap="round"/>
<line x1="214.14" y1="156.50" x2="241.98" y2="70.79" stroke="#454545" stroke-width="2.83" stroke-opacity="0.50" stroke-linecap="round"/>
<line x1="214.73" y1="158.40" x2="248.37" y2="63.42" stroke="#454545" stroke-width="1.57" stroke-opacity="0.50" stroke-linecap="round"/>
<line x1="216.54" y1="156.90" x2="245.23" y2="82.16" stroke="#454545" stroke-width="0.93" stroke-opacity="0.46" stroke-linecap="round"/>
<line x1="218.93" y1="154.29" x2="247.57" y2="85.15" stroke="#454545" stroke-width="1.38" stroke-opacity="0.55" stroke-linecap="round"/>
<line x1="218.27" y1="158.96" x2="257.85" y2="70.06" stroke="#bcbcbc" stroke-width="2.62" stroke-opacity="0.59" stroke-linecap="round"/>
<line x1="219.30" y1="159.54" x2="259.78" y2="74.66" stroke="#ffffff" stroke-width="1.38" stroke-opacity="0.92" stroke-linecap="round"/>
<line x1="220.15" y1="160.46" x2="266.70" y2="69.09" stroke="#454545" stroke-width="1.10" stroke-opacity="0.54" stroke-linecap="round"/>
<line x1="220.66" y1="161.95" x2="265.29" y2="79.75" stroke="#bcbcbc" stroke-width="0.90" stroke-opacity="0.61" stroke-linecap="round"/>
<line x1="221.75" y1="162.33" x2="273.07" y2="73.44" stroke="#454545" stroke-width="2.10" stroke-opacity="0.54" stroke-linecap="round"/>
<line x1="224.65" y1="159.77" x2="272.28" y2="82.05" stroke="#ffffff" stroke-width="1.29" stroke-opacity="0.87" stroke-linecap="round"/>
<line x1="225.95" y1="160.04" x2="266.40" y2="97.75" stroke="#454545" stroke-width="1.00" stroke-opacity="0.48" stroke-linecap="round"/>
<line x1="227.75" y1="159.63" x2="278.99" y2="85.06" stroke="#454545" stroke-width="2.39" stroke-opacity="0.52" stroke-linecap="round"/>
<line x1="225.87" y1="164.39" x2="285.41" y2="82.44" stroke="#454545" stroke-width="2.46" stroke-opacity="0.45" stroke-linecap="round"/>
<line x1="229.30" y1="161.82" x2="273.08" y2="104.76" stroke="#ffffff" stroke-width="1.93" stroke-opacity="0.92" stroke-linecap="round"/>
<line x1="228.09" y1="165.31" x2="278.45" y2="103.12" stroke="#ffffff" stroke-width="1.38" stroke-opacity="0.88" stroke-linecap="round"/>
<line x1="229.56" y1="165.39" x2="279.65" y2="106.74" stroke="#454545" stroke-width="0.97" stroke-opacity="0.52" stroke-linecap="round"/>
<line x1="229.69" y1="167.03" x2="293.36" y2="96.32" stroke="#454545" stroke-width="1.11" stroke-opacity="0.53" stroke-linecap="round"/>
<line x1="232.31" y1="165.96" x2="291.84" y2="103.22" stroke="#454545" stroke-width="2.81" stroke-opacity="0.44" stroke-linecap="round"/>
<line x1="233.02" y1="166.98" x2="295.33" y2="104.67" stroke="#bcbcbc" stroke-width="2.78" stroke-opacity="0.65" stroke-linecap="round"/>
<line x1="235.03" y1="166.76" x2="296.18" y2="108.73" stroke="#454545" stroke-width="2.64" stroke-opacity="0.40" stroke-linecap="round"/>
<line x1="233.84" y1="169.53" x2="294.96" y2="114.50" stroke="#454545" stroke-width="2.76" stroke-opacity="0.52" stroke-linecap="round"/>
<line x1="237.56" y1="167.92" x2="305.86" y2="109.58" stroke="#bcbcbc" stroke-width="1.06" stroke-opacity="0.57" stroke-linecap="round"/>
<line x1="236.77" y1="170.23" x2="295.66" y2="122.54" stroke="#bcbcbc" stroke-width="2.66" stroke-opacity="0.51" stroke-linecap="round"/>
<line x1="236.27" y1="172.17" x2="318.34" y2="109.19" stroke="#bcbcbc" stroke-width="2.20" stroke-opacity="0.56" stroke-linecap="round"/>
<line x1="236.70" y1="173.34" x2="306.99" y2="122.27" stroke="#454545" stroke-width="1.01" stroke-opacity="0.54" stroke-linecap="round"/>
<line x1="240.25" y1="172.34" x2="309.05" y2="125.06" stroke="#454545" stroke-width="0.94" stroke-opacity="0.42" stroke-linecap="round"/>
<line x1="240.53" y1="173.68" x2="324.38" y2="119.23" stroke="#454545" stroke-width="2.77" stroke-opacity="0.40" stroke-linecap="round"/>
<line x1="238.11" y1="176.65" x2="312.96" y2="130.78" stroke="#bcbcbc" stroke-width="0.86" stroke-opacity="0.56" stroke-linecap="round"/>
<line x1="240.30" y1="176.73" x2="306.73" y2="138.38" stroke="#ffffff" stroke-width="2.85" stroke-opacity="0.92" stroke-linecap="round"/>
<line x1="242.35" y1="177.01" x2="308.17" y2="141.27" stroke="#bcbcbc" stroke-width="1.05" stroke-opacity="0.52" stroke-linecap="round"/>
<line x1="241.64" y1="178.78" x2="333.31" y2="132.08" stroke="#454545" stroke-width="1.76" stroke-opacity="0.50" stroke-linecap="round"/>
<line x1="241.51" y1="180.20" x2="334.66" y2="135.77" stroke="#454545" stroke-width="1.26" stroke-opacity="0.58" stroke-linecap="round"/>
<line x1="243.23" y1="180.75" x2="320.09" y2="146.53" stroke="#454545" stroke-width="2.82" stroke-opacity="0.56" stroke-linecap="round"/>
<line x1="240.78" y1="183.11" x2="325.53" y2="148.00" stroke="#ffffff" stroke-width="0.92" stroke-opacity="0.92" stroke-linecap="round"/>
<line x1="245.88" y1="182.39" x2="324.44" y2="152.23" stroke="#454545" stroke-width="2.06" stroke-opacity="0.44" stroke-linecap="round"/>
<line x1="242.32" y1="185.02" x2="334.16" y2="152.49" stroke="#bcbcbc" stroke-width="1.84" stroke-opacity="0.63" stroke-linecap="round"/>
<line x1="242.37" y1="186.23" x2="317.96" y2="161.67" stroke="#bcbcbc" stroke-width="2.33" stroke-opacity="0.52" stroke-linecap="round"/>
<line x1="242.28" y1="187.48" x2="343.75" y2="157.42" stroke="#454545" stroke-width="1.17" stroke-opacity="0.48" stroke-linecap="round"/>
<line x1="247.10" y1="187.38" x2="333.87" y2="164.13" stroke="#bcbcbc" stroke-width="1.16" stroke-opacity="0.52" stroke-linecap="round"/>
<line x1="243.62" y1="189.53" x2="333.61" y2="167.92" stroke="#454545" stroke-width="1.58" stroke-opacity="0.54" stroke-linecap="round"/>
<line x1="247.11" y1="189.99" x2="320.97" y2="174.29" stroke="#bcbcbc" stroke-width="1.54" stroke-opacity="0.64" stroke-linecap="round"/>
<line x1="248.05" y1="191.09" x2="332.41" y2="175.46" stroke="#454545" stroke-width="2.82" stroke-opacity="0.45" stroke-linecap="round"/>
<line x1="243.55" y1="193.10" x2="344.51" y2="177.11" stroke="#454545" stroke-width="1.72" stroke-opacity="0.59" stroke-linecap="round"/>
<line x1="247.05" y1="193.81" x2="322.79" y2="183.83" stroke="#bcbcbc" stroke-width="2.47" stroke-opacity="0.50" stroke-linecap="round"/>
<line x1="245.00" y1="195.27" x2="347.50" y2="184.50" stroke="#bcbcbc" stroke-width="2.68" stroke-opacity="0.59" stroke-linecap="round"/>
<line x1="247.45" y1="196.27" x2="344.68" y2="188.61" stroke="#bcbcbc" stroke-width="1.55" stroke-opacity="0.61" stroke-linecap="round"/>
<line x1="247.13" y1="197.53" x2="341.15" y2="192.60" stroke="#454545" stroke-width="2.55" stroke-opacity="0.49" stroke-linecap="round"/>
<line x1="248.32" y1="198.73" x2="320.00" y2="196.86" stroke="#bcbcbc" stroke-width="2.50" stroke-opacity="0.51" stroke-linecap="round"/>
<circle cx="200" cy="200" r="42.32" fill="none" stroke="#e8e8e8" stroke-width="23.0" stroke-opacity="0.92"/>
</svg>